<?xml version="1.0" encoding="UTF-8" standalone="no"?>
<!-- Created with Inkscape (http://www.inkscape.org/) -->

<svg
   xmlns:dc="http://purl.org/dc/elements/1.1/"
   xmlns:cc="http://creativecommons.org/ns#"
   xmlns:rdf="http://www.w3.org/1999/02/22-rdf-syntax-ns#"
   xmlns:svg="http://www.w3.org/2000/svg"
   xmlns="http://www.w3.org/2000/svg"
   xmlns:sodipodi="http://sodipodi.sourceforge.net/DTD/sodipodi-0.dtd"
   xmlns:inkscape="http://www.inkscape.org/namespaces/inkscape"
   width="744.09448819"
   height="1052.3622047"
   id="svg2"
   version="1.1"
   inkscape:version="0.47pre1 r21720"
   sodipodi:docname="jsGameSoup-logo.svg"
   inkscape:output_extension="org.inkscape.output.svg.inkscape">
  <defs
     id="defs4">
    <inkscape:perspective
       sodipodi:type="inkscape:persp3d"
       inkscape:vp_x="0 : 526.18109 : 1"
       inkscape:vp_y="0 : 1000 : 0"
       inkscape:vp_z="744.09448 : 526.18109 : 1"
       inkscape:persp3d-origin="372.04724 : 350.78739 : 1"
       id="perspective10" />
  </defs>
  <sodipodi:namedview
     id="base"
     pagecolor="#ffffff"
     bordercolor="#666666"
     borderopacity="1.0"
     inkscape:pageopacity="0.0"
     inkscape:pageshadow="2"
     inkscape:zoom="0.175"
     inkscape:cx="-2500.7347"
     inkscape:cy="-806.84786"
     inkscape:document-units="px"
     inkscape:current-layer="layer1"
     showgrid="false"
     inkscape:window-width="1280"
     inkscape:window-height="752"
     inkscape:window-x="0"
     inkscape:window-y="22"
     inkscape:window-maximized="0"
     showborder="false"
     showguides="true"
     inkscape:guide-bbox="true">
    <sodipodi:guide
       orientation="1,0"
       position="-4725.7143,-1428.5714"
       id="guide3796" />
  </sodipodi:namedview>
  <metadata
     id="metadata7">
    <rdf:RDF>
      <cc:Work
         rdf:about="">
        <dc:format>image/svg+xml</dc:format>
        <dc:type
           rdf:resource="http://purl.org/dc/dcmitype/StillImage" />
        <dc:title></dc:title>
      </cc:Work>
    </rdf:RDF>
  </metadata>
  <g
     inkscape:label="Layer 1"
     inkscape:groupmode="layer"
     id="layer1">
    <rect
       style="fill:#1a1a1a;fill-opacity:1;stroke:none"
       id="rect2957"
       width="2428.5715"
       height="1737.1428"
       x="-1948.5714"
       y="4429.5049" />
    <path
       style="fill:none;stroke:#ffffff;stroke-width:30;stroke-miterlimit:4;stroke-opacity:1;stroke-dasharray:none"
       d="M -226.65625,4995.7367 -553.375,5162.2679 c -56.02739,-36.0086 -148.91198,-59.5625 -254.03125,-59.5625 -171.14062,0 -309.87505,62.4 -309.87495,139.4063 0,1.4244 0.031,2.867 0.125,4.2812 -0.044,-0.039 -0.081,-0.086 -0.125,-0.125 0,99.4691 69.5323,223.2294 170.8437,287.0625 16.61067,45.8975 72.54538,79.6563 139.03125,79.6563 66.48587,0 122.45183,-33.7588 139.0625,-79.6563 101.29921,-63.8372 170.8125,-187.6008 170.8125,-287.0625 -0.0451,0.038 -0.0799,0.087 -0.125,0.125 0.0943,-1.4142 0.125,-2.8567 0.125,-4.2812 0,-1.0448 -0.0117,-2.0858 -0.0625,-3.125 l 290.5625,-84.875 -6.40625,-21.9376 -289.25,84.5 c -5.6968,-13.9059 -15.98787,-27.089 -30.125,-39.2187 l 316.53125,-161.375 -10.375,-20.3437 z"
       id="path3731" />
    <path
       style="fill:#1a1a1a;fill-rule:evenodd;stroke:none"
       d="m -827.59211,-357.34288 c 0,128.28984 -138.7369,300.860741 -309.87749,300.860741 -171.1406,0 -309.8775,-172.570901 -309.8775,-300.860741 57.3797,-315.1544 554.36282,-303.91556 619.75499,0 z"
       id="path3590"
       sodipodi:nodetypes="cscc" />
    <path
       sodipodi:type="arc"
       style="fill:#1a1a1a;fill-rule:evenodd;stroke:none"
       id="path2816"
       sodipodi:cx="254.28572"
       sodipodi:cy="473.79074"
       sodipodi:rx="80"
       sodipodi:ry="38.57143"
       d="m 334.28572,473.79074 a 80,38.57143 0 1 1 -160,0 80,38.57143 0 1 1 160,0 z"
       transform="matrix(3.8734688,0,0,6.0223157,-2122.4374,-3210.6603)" />
    <path
       transform="matrix(1.8009809,0,0,2.8000936,-1595.4333,-1454.0013)"
       d="m 334.28572,473.79074 a 80,38.57143 0 1 1 -160,0 80,38.57143 0 1 1 160,0 z"
       sodipodi:ry="38.57143"
       sodipodi:rx="80"
       sodipodi:cy="473.79074"
       sodipodi:cx="254.28572"
       id="path3595"
       style="fill:#1a1a1a;fill-rule:evenodd;stroke:none"
       sodipodi:type="arc" />
    <path
       transform="matrix(3.8734688,0,0,3.6149084,-2140.6821,-1387.9252)"
       d="m 334.28572,473.79074 a 80,38.57143 0 1 1 -160,0 80,38.57143 0 1 1 160,0 z"
       sodipodi:ry="38.57143"
       sodipodi:rx="80"
       sodipodi:cy="473.79074"
       sodipodi:cx="254.28572"
       id="path3601"
       style="fill:#1a1a1a;fill-rule:evenodd;stroke:none"
       sodipodi:type="arc" />
    <path
       sodipodi:type="arc"
       style="fill:#1a1a1a;fill-rule:evenodd;stroke:none"
       id="path3603"
       sodipodi:cx="254.28572"
       sodipodi:cy="473.79074"
       sodipodi:rx="80"
       sodipodi:ry="38.57143"
       d="m 334.28572,473.79074 a 80,38.57143 0 1 1 -160,0 80,38.57143 0 1 1 160,0 z"
       transform="matrix(1.8009809,0,0,2.8000936,-1613.678,-739.01633)" />
    <path
       sodipodi:nodetypes="cscc"
       id="path3599"
       d="m -845.83678,328.94535 c 0,140.5264 -138.73689,329.55747 -309.87752,329.55747 -171.1406,0 -309.8775,-189.03107 -309.8775,-329.55747 168.8082,151.4169 434.3628,154.93951 619.75502,0 z"
       style="fill:#1a1a1a;fill-rule:evenodd;stroke:none" />
    <path
       style="fill:#ffffff;fill-rule:evenodd;stroke:none"
       d="m -909.33456,353.35633 c -220.46804,-0.9917 -262.84194,0.31041 -492.75934,0 0,-61.2267 110.308,-110.86076 246.3797,-110.86076 136.0717,0 246.37964,49.63406 246.37964,110.86076 z"
       id="path3605"
       sodipodi:nodetypes="ccsc" />
    <path
       style="fill:#ffffff;fill-rule:evenodd;stroke:none"
       d="m -909.33455,346.93438 c 0,37.94819 -110.30795,68.71128 -246.37965,68.71128 -136.0717,0 -246.3797,-30.76309 -246.3797,-68.71128 129.0395,-13.55216 377.1277,-14.35922 492.75935,0 z"
       id="path3609"
       sodipodi:nodetypes="cscc" />
    <path
       sodipodi:type="arc"
       style="fill:#1a1a1a;fill-rule:evenodd;stroke:none"
       id="path3614"
       sodipodi:cx="254.28572"
       sodipodi:cy="473.79074"
       sodipodi:rx="80"
       sodipodi:ry="38.57143"
       d="m 334.28572,473.79074 a 80,38.57143 0 1 1 -160,0 80,38.57143 0 1 1 160,0 z"
       transform="matrix(3.8734688,0,0,3.6149084,989.42968,-1370.9506)" />
    <path
       transform="matrix(1.8009809,0,0,2.8000936,1516.4337,-722.04168)"
       d="m 334.28572,473.79074 a 80,38.57143 0 1 1 -160,0 80,38.57143 0 1 1 160,0 z"
       sodipodi:ry="38.57143"
       sodipodi:rx="80"
       sodipodi:cy="473.79074"
       sodipodi:cx="254.28572"
       id="path3616"
       style="fill:#1a1a1a;fill-rule:evenodd;stroke:none"
       sodipodi:type="arc" />
    <path
       style="fill:#1a1a1a;fill-rule:evenodd;stroke:none"
       d="m 2284.2749,345.92 c 0,140.5264 -138.7369,329.55747 -309.8775,329.55747 -171.1406,0 -309.8775,-189.03107 -309.8775,-329.55747 168.8082,151.4169 434.3628,154.93951 619.755,0 z"
       id="path3618"
       sodipodi:nodetypes="cscc" />
    <path
       sodipodi:nodetypes="ccsc"
       id="path3620"
       d="m 2220.7771,370.33098 c -220.468,-0.9917 -262.8419,0.31041 -492.7593,0 0,-61.2267 110.308,-110.86076 246.3797,-110.86076 136.0717,0 246.3796,49.63406 246.3796,110.86076 z"
       style="fill:#ffffff;fill-rule:evenodd;stroke:none" />
    <rect
       style="fill:#1a1a1a;fill-opacity:1;stroke:none"
       id="rect3629"
       width="22.857178"
       height="497.33081"
       x="1219.5475"
       y="-2234.2637"
       transform="matrix(0.45415501,0.89092268,-0.89092268,0.45415501,0,0)" />
    <rect
       y="-2396.6069"
       x="917.12476"
       height="491.92783"
       width="22.857178"
       id="rect3631"
       style="fill:#1a1a1a;fill-opacity:1;stroke:none"
       transform="matrix(0.28042605,0.95987563,-0.95987563,0.28042605,0,0)" />
    <path
       sodipodi:nodetypes="cscc"
       id="path3622"
       d="m 2220.7771,363.90903 c 0,37.94819 -110.3079,68.71128 -246.3796,68.71128 -136.0717,0 -246.3797,-30.76309 -246.3797,-68.71128 129.0395,-13.55216 362.842,-17.21636 492.7593,0 z"
       style="fill:#ffffff;fill-rule:evenodd;stroke:none" />
    <path
       style="fill:#ffffff;fill-rule:evenodd;stroke:none"
       d="m 2175.8972,370.33992 c -180.3081,-0.81105 -214.9633,0.25387 -402.9995,0 0,-50.0738 90.2146,-90.66665 201.4998,-90.66665 111.2852,0 201.4997,40.59285 201.4997,90.66665 z"
       id="path3654"
       sodipodi:nodetypes="ccsc" />
    <path
       transform="matrix(3.8734688,0,0,3.6149084,956.36227,-2078.9885)"
       d="m 334.28572,473.79074 a 80,38.57143 0 1 1 -160,0 80,38.57143 0 1 1 160,0 z"
       sodipodi:ry="38.57143"
       sodipodi:rx="80"
       sodipodi:cy="473.79074"
       sodipodi:cx="254.28572"
       id="path2902"
       style="fill:#1a1a1a;fill-rule:evenodd;stroke:none"
       sodipodi:type="arc" />
    <path
       sodipodi:type="arc"
       style="fill:#1a1a1a;fill-rule:evenodd;stroke:none"
       id="path2904"
       sodipodi:cx="254.28572"
       sodipodi:cy="473.79074"
       sodipodi:rx="80"
       sodipodi:ry="38.57143"
       d="m 334.28572,473.79074 a 80,38.57143 0 1 1 -160,0 80,38.57143 0 1 1 160,0 z"
       transform="matrix(1.8009809,0,0,2.8000936,1483.3663,-1430.0796)" />
    <path
       sodipodi:nodetypes="cscc"
       id="path2906"
       d="m 2251.2076,-362.11798 c 0,140.5264 -138.7369,329.557501 -309.8775,329.557501 -171.1406,0 -309.8776,-189.031101 -309.8776,-329.557501 168.8083,151.4169 434.3629,154.9395 619.7551,0 z"
       style="fill:#1a1a1a;fill-rule:evenodd;stroke:none" />
    <path
       style="fill:#ffffff;fill-rule:evenodd;stroke:none"
       d="m 2187.7098,-337.70698 c -220.468,-0.9917 -262.8419,0.3104 -492.7594,0 0,-61.2267 110.3081,-110.8607 246.3798,-110.8607 136.0717,0 246.3796,49.634 246.3796,110.8607 z"
       id="path2908"
       sodipodi:nodetypes="ccsc" />
    <path
       style="fill:#1a1a1a;fill-opacity:1;stroke:none"
       d="m 2511.3525,-636.21746 10.3807,20.364 -443.0833,225.86527 -11.7563,-8.16166 1.3756,-12.20234 443.0833,-225.86527 z"
       id="rect2910"
       sodipodi:nodetypes="cccccc" />
    <path
       style="fill:#ffffff;fill-rule:evenodd;stroke:none"
       d="m 2187.7098,-344.12888 c 0,37.9482 -110.3079,68.7112 -246.3796,68.7112 -136.0717,0 -246.3798,-30.763 -246.3798,-68.7112 129.0396,-13.5522 362.8421,-17.2164 492.7594,0 z"
       id="path2914"
       sodipodi:nodetypes="cscc" />
    <path
       style="fill:#1a1a1a;fill-opacity:1;stroke:none"
       d="m 2524.563,-499.78328 6.4098,21.93997 -423.2486,123.65135 -11.2861,-12.48525 4.8764,-9.45472 423.2485,-123.65135 z"
       id="rect2912"
       sodipodi:nodetypes="cccccc" />
    <path
       transform="matrix(3.8734688,0,0,3.6149084,-615.22609,-1390.5878)"
       d="m 334.28572,473.79074 a 80,38.57143 0 1 1 -160,0 80,38.57143 0 1 1 160,0 z"
       sodipodi:ry="38.57143"
       sodipodi:rx="80"
       sodipodi:cy="473.79074"
       sodipodi:cx="254.28572"
       id="path2920"
       style="fill:#1a1a1a;fill-rule:evenodd;stroke:none"
       sodipodi:type="arc" />
    <path
       sodipodi:type="arc"
       style="fill:#1a1a1a;fill-rule:evenodd;stroke:none"
       id="path2922"
       sodipodi:cx="254.28572"
       sodipodi:cy="473.79074"
       sodipodi:rx="80"
       sodipodi:ry="38.57143"
       d="m 334.28572,473.79074 a 80,38.57143 0 1 1 -160,0 80,38.57143 0 1 1 160,0 z"
       transform="matrix(1.8009809,0,0,2.8000936,-88.222043,-741.67887)" />
    <path
       sodipodi:nodetypes="cscc"
       id="path2924"
       d="m 679.61914,326.28283 c 0,140.5264 -138.7369,329.5575 -309.8775,329.5575 -171.14059,0 -309.877483,-189.0311 -309.877483,-329.5575 168.808193,151.4169 434.362783,154.9395 619.754983,0 z"
       style="fill:#1a1a1a;fill-rule:evenodd;stroke:none" />
    <path
       style="fill:#ffffff;fill-rule:evenodd;stroke:none"
       d="m 616.12134,350.69383 c -220.468,-0.9917 -262.8419,0.3104 -492.75929,0 0,-61.2267 110.308,-110.8608 246.37969,-110.8608 136.0717,0 246.3796,49.6341 246.3796,110.8608 z"
       id="path2926"
       sodipodi:nodetypes="ccsc" />
    <path
       style="fill:#1a1a1a;fill-opacity:1;stroke:none"
       d="M 950.49944,75.744633 507.40564,301.58843 c -4.9579,15.8518 13.9067,14.1521 24.8125,13.0312 l 428.6563,-218.531197 -10.375,-20.3438 z"
       id="rect2928"
       sodipodi:nodetypes="ccccc" />
    <path
       style="fill:#ffffff;fill-rule:evenodd;stroke:none"
       d="m 616.12134,344.27183 c 0,37.9482 -110.3079,68.7113 -246.3796,68.7113 -136.07169,0 -246.37969,-30.7631 -246.37969,-68.7113 129.0395,-13.5521 362.84199,-17.2163 492.75929,0 z"
       id="path2932"
       sodipodi:nodetypes="cscc" />
    <path
       style="fill:#1a1a1a;fill-opacity:1;stroke:none"
       d="m 963.71814,212.18223 -406.2812,118.6874 c -11.0166,7.9259 1.8254,15.2337 17.0625,18.8126 l 395.625,-115.5626 -6.4063,-21.9374 z"
       id="rect2930"
       sodipodi:nodetypes="ccccc" />
    <path
       style="fill:#ff6600;fill-rule:evenodd;stroke:none"
       d="m -807.40625,5102.7054 c -171.14062,0 -309.87495,62.4 -309.87495,139.4063 0,1.4245 0.031,2.867 0.125,4.2812 -0.044,-0.039 -0.081,-0.086 -0.125,-0.125 0,99.4691 69.5323,223.2294 170.8437,287.0625 16.61067,45.8975 72.54538,79.6563 139.03125,79.6563 66.48587,0 122.45183,-33.7588 139.0625,-79.6563 101.29921,-63.8372 170.8125,-187.6008 170.8125,-287.0625 -0.0451,0.038 -0.0799,0.087 -0.125,0.125 0.0943,-1.4142 0.125,-2.8567 0.125,-4.2812 0,-77.0063 -138.73438,-139.4063 -309.875,-139.4063 z"
       id="path2940" />
    <path
       style="fill:#ffffff;fill-rule:evenodd;stroke:none"
       d="m -807.40625,5159.8304 c -131.2507,0 -238.50045,46.1872 -245.93755,104.4063 -0.142,0.015 -0.2957,0.016 -0.4374,0.031 0,0.8262 0.084,1.6496 0.1874,2.4688 -0.1024,1.3136 -0.1874,2.6438 -0.1874,3.9687 0.4021,5e-4 0.6927,-5e-4 1.0937,0 11.638,34.9295 116.99386,62.2813 245.28125,62.2813 128.29103,0 233.6795,-27.3504 245.3125,-62.2813 0.38913,0 0.67226,-0 1.0625,0 0,-1.3245 -0.0539,-2.6554 -0.15625,-3.9687 0.10357,-0.8187 0.15625,-1.6431 0.15625,-2.4688 -0.14276,-0.019 -0.29449,-0.044 -0.4375,-0.062 -7.47096,-58.2045 -114.70993,-104.375 -245.9375,-104.375 z"
       id="path2946" />
    <path
       sodipodi:nodetypes="ccccc"
       id="path2948"
       d="m -226.64343,4995.7447 -443.0938,225.8438 c -4.9579,15.8518 13.9067,14.1521 24.8125,13.0312 l 428.6563,-218.5312 -10.375,-20.3438 z"
       style="fill:#ff6600;fill-opacity:1;stroke:none" />
    <path
       sodipodi:nodetypes="ccccc"
       id="path2952"
       d="m -213.42473,5132.1823 -406.2812,118.6874 c -11.0166,7.9259 1.8254,15.2337 17.0625,18.8126 l 395.625,-115.5626 -6.4063,-21.9374 z"
       style="fill:#ff6600;fill-opacity:1;stroke:none" />
    <rect
       y="972.36218"
       x="457.14285"
       height="1737.1428"
       width="2428.5715"
       id="rect3738"
       style="fill:#1a1a1a;fill-opacity:1;stroke:none" />
    <path
       id="path3740"
       d="m 2179.0581,1538.5938 -326.7187,166.5312 c -56.0274,-36.0086 -148.912,-59.5625 -254.0313,-59.5625 -171.1406,0 -309.875,62.4 -309.8749,139.4063 0,1.4244 0.031,2.867 0.125,4.2812 -0.044,-0.039 -0.081,-0.086 -0.125,-0.125 0,99.4691 69.5323,223.2294 170.8437,287.0625 16.6106,45.8975 72.5453,79.6563 139.0312,79.6563 66.4859,0 122.4518,-33.7588 139.0625,-79.6563 101.2992,-63.8372 170.8125,-187.6008 170.8125,-287.0625 -0.045,0.038 -0.08,0.087 -0.125,0.125 0.094,-1.4142 0.125,-2.8567 0.125,-4.2812 0,-1.0448 -0.012,-2.0858 -0.062,-3.125 l 290.5625,-84.875 -6.4062,-21.9376 -289.25,84.5 c -5.6968,-13.9059 -15.9879,-27.089 -30.125,-39.2187 l 316.5312,-161.375 -10.375,-20.3437 z"
       style="fill:#ffffff;stroke:#ff6600;stroke-width:30;stroke-miterlimit:4;stroke-opacity:1;stroke-dasharray:none" />
    <path
       id="path3742"
       d="m 1598.3081,1645.5625 c -171.1406,0 -309.8749,62.4 -309.8749,139.4063 0,1.4245 0.031,2.867 0.125,4.2812 -0.044,-0.039 -0.081,-0.086 -0.125,-0.125 0,99.4691 69.5323,223.2294 170.8437,287.0625 16.6106,45.8975 72.5453,79.6563 139.0312,79.6563 66.4859,0 122.4518,-33.7588 139.0625,-79.6563 101.2992,-63.8372 170.8125,-187.6008 170.8125,-287.0625 -0.045,0.038 -0.08,0.087 -0.125,0.125 0.094,-1.4142 0.125,-2.8567 0.125,-4.2812 0,-77.0063 -138.7344,-139.4063 -309.875,-139.4063 z"
       style="fill:#1a1a1a;fill-opacity:1;fill-rule:evenodd;stroke:none" />
    <path
       id="path3744"
       d="m 1598.3081,1702.6875 c -131.2507,0 -238.5004,46.1872 -245.9375,104.4063 -0.142,0.015 -0.2957,0.016 -0.4374,0.031 0,0.8262 0.084,1.6496 0.1874,2.4688 -0.1024,1.3136 -0.1874,2.6438 -0.1874,3.9687 0.4021,5e-4 0.6927,-5e-4 1.0937,0 11.638,34.9295 116.9938,62.2813 245.2812,62.2813 128.291,0 233.6795,-27.3504 245.3125,-62.2813 0.3891,0 0.6723,0 1.0625,0 0,-1.3245 -0.054,-2.6554 -0.1562,-3.9687 0.1035,-0.8187 0.1562,-1.6431 0.1562,-2.4688 -0.1428,-0.019 -0.2945,-0.044 -0.4375,-0.062 -7.471,-58.2045 -114.7099,-104.375 -245.9375,-104.375 z"
       style="fill:#ff6600;fill-rule:evenodd;stroke:none" />
    <path
       style="fill:#1a1a1a;fill-opacity:1;stroke:none"
       d="m 2179.0709,1538.6018 -443.0938,225.8438 c -4.9579,15.8518 13.9067,14.1521 24.8125,13.0312 l 428.6563,-218.5312 -10.375,-20.3438 z"
       id="path3746"
       sodipodi:nodetypes="ccccc" />
    <path
       style="fill:#1a1a1a;fill-opacity:1;stroke:none"
       d="m 2192.2896,1675.0394 -406.2812,118.6874 c -11.0166,7.9259 1.8254,15.2337 17.0625,18.8126 l 395.625,-115.5626 -6.4063,-21.9374 z"
       id="path3748"
       sodipodi:nodetypes="ccccc" />
    <rect
       y="2709.5051"
       x="-1948.5714"
       height="1737.1428"
       width="2428.5715"
       id="rect3750"
       style="fill:#1a1a1a;fill-opacity:1;stroke:none" />
    <path
       id="path3752"
       d="M -226.65625,3275.7367 -553.375,3442.2679 c -56.02739,-36.0086 -148.91198,-59.5625 -254.03125,-59.5625 -171.14062,0 -309.87505,62.4 -309.87495,139.4063 0,1.4244 0.031,2.867 0.125,4.2812 -0.044,-0.039 -0.081,-0.086 -0.125,-0.125 0,99.4691 69.5323,223.2294 170.8437,287.0625 16.61067,45.8975 72.54538,79.6563 139.03125,79.6563 66.48587,0 122.45183,-33.7588 139.0625,-79.6563 101.29921,-63.8372 170.8125,-187.6008 170.8125,-287.0625 -0.0451,0.038 -0.0799,0.087 -0.125,0.125 0.0943,-1.4142 0.125,-2.8567 0.125,-4.2812 0,-1.0448 -0.0117,-2.0858 -0.0625,-3.125 l 290.5625,-84.875 -6.40625,-21.9376 -289.25,84.5 c -5.6968,-13.9059 -15.98787,-27.089 -30.125,-39.2187 l 316.53125,-161.375 -10.375,-20.3437 z"
       style="fill:#ff6600;stroke:#ff6600;stroke-width:30;stroke-miterlimit:4;stroke-opacity:1;stroke-dasharray:none" />
    <path
       id="path3754"
       d="m -807.40625,3382.7054 c -171.14062,0 -309.87495,62.4 -309.87495,139.4063 0,1.4245 0.031,2.867 0.125,4.2812 -0.044,-0.039 -0.081,-0.086 -0.125,-0.125 0,99.4691 69.5323,223.2294 170.8437,287.0625 16.61067,45.8975 72.54538,79.6563 139.03125,79.6563 66.48587,0 122.45183,-33.7588 139.0625,-79.6563 101.29921,-63.8372 170.8125,-187.6008 170.8125,-287.0625 -0.0451,0.038 -0.0799,0.087 -0.125,0.125 0.0943,-1.4142 0.125,-2.8567 0.125,-4.2812 0,-77.0063 -138.73438,-139.4063 -309.875,-139.4063 z"
       style="fill:#ffffff;fill-rule:evenodd;stroke:none" />
    <path
       id="path3756"
       d="m -807.40625,3439.8304 c -131.2507,0 -238.50045,46.1872 -245.93755,104.4063 -0.142,0.015 -0.2957,0.016 -0.4374,0.031 0,0.8262 0.084,1.6496 0.1874,2.4688 -0.1024,1.3136 -0.1874,2.6438 -0.1874,3.9687 0.4021,5e-4 0.6927,-5e-4 1.0937,0 11.638,34.9295 116.99386,62.2813 245.28125,62.2813 128.29103,0 233.6795,-27.3504 245.3125,-62.2813 0.38913,0 0.67226,0 1.0625,0 0,-1.3245 -0.0539,-2.6554 -0.15625,-3.9687 0.10357,-0.8187 0.15625,-1.6431 0.15625,-2.4688 -0.14276,-0.019 -0.29449,-0.044 -0.4375,-0.062 -7.47096,-58.2045 -114.70993,-104.375 -245.9375,-104.375 z"
       style="fill:#ff6600;fill-rule:evenodd;stroke:none" />
    <path
       style="fill:#ffffff;fill-opacity:1;stroke:none"
       d="m -226.64343,3275.7447 -443.0938,225.8438 c -4.9579,15.8518 13.9067,14.1521 24.8125,13.0312 l 428.6563,-218.5312 -10.375,-20.3438 z"
       id="path3758"
       sodipodi:nodetypes="ccccc" />
    <path
       style="fill:#ffffff;fill-opacity:1;stroke:none"
       d="m -213.42473,3412.1823 -406.2812,118.6874 c -11.0166,7.9259 1.8254,15.2337 17.0625,18.8126 l 395.625,-115.5626 -6.4063,-21.9374 z"
       id="path3760"
       sodipodi:nodetypes="ccccc" />
    <rect
       style="fill:#1a1a1a;fill-opacity:1;stroke:none"
       id="rect3762"
       width="2428.5715"
       height="1737.1428"
       x="457.14285"
       y="2703.7908" />
    <path
       style="fill:none;stroke:#ffffff;stroke-width:30;stroke-miterlimit:4;stroke-opacity:1;stroke-dasharray:none"
       d="m 2179.0581,3270.0224 -326.7187,166.5312 c -56.0274,-36.0086 -148.912,-59.5625 -254.0313,-59.5625 -171.1406,0 -309.875,62.4 -309.8749,139.4063 0,1.4244 0.031,2.867 0.125,4.2812 -0.044,-0.039 -0.081,-0.086 -0.125,-0.125 0,99.4691 69.5323,223.2294 170.8437,287.0625 16.6106,45.8975 72.5453,79.6563 139.0312,79.6563 66.4859,0 122.4518,-33.7588 139.0625,-79.6563 101.2992,-63.8372 170.8125,-187.6008 170.8125,-287.0625 -0.045,0.038 -0.08,0.087 -0.125,0.125 0.094,-1.4142 0.125,-2.8567 0.125,-4.2812 0,-1.0448 -0.012,-2.0858 -0.062,-3.125 l 290.5625,-84.875 -6.4062,-21.9376 -289.25,84.5 c -5.6968,-13.9059 -15.9879,-27.089 -30.125,-39.2187 l 316.5312,-161.375 -10.375,-20.3437 z"
       id="path3764" />
    <path
       style="fill:#1a1a1a;fill-opacity:1;fill-rule:evenodd;stroke:none"
       d="m 1598.3081,3376.9911 c -171.1406,0 -309.8749,62.4 -309.8749,139.4063 0,1.4245 0.031,2.867 0.125,4.2812 -0.044,-0.039 -0.081,-0.086 -0.125,-0.125 0,99.4691 69.5323,223.2294 170.8437,287.0625 16.6106,45.8975 72.5453,79.6563 139.0312,79.6563 66.4859,0 122.4518,-33.7588 139.0625,-79.6563 101.2992,-63.8372 170.8125,-187.6008 170.8125,-287.0625 -0.045,0.038 -0.08,0.087 -0.125,0.125 0.094,-1.4142 0.125,-2.8567 0.125,-4.2812 0,-77.0063 -138.7344,-139.4063 -309.875,-139.4063 z"
       id="path3766" />
    <path
       style="fill:#ffffff;fill-rule:evenodd;stroke:none"
       d="m 1598.3081,3434.1161 c -131.2507,0 -238.5004,46.1872 -245.9375,104.4063 -0.142,0.015 -0.2957,0.016 -0.4374,0.031 0,0.8262 0.084,1.6496 0.1874,2.4688 -0.1024,1.3136 -0.1874,2.6438 -0.1874,3.9687 0.4021,5e-4 0.6927,-5e-4 1.0937,0 11.638,34.9295 116.9938,62.2813 245.2812,62.2813 128.291,0 233.6795,-27.3504 245.3125,-62.2813 0.3891,0 0.6723,0 1.0625,0 0,-1.3245 -0.054,-2.6554 -0.1562,-3.9687 0.1035,-0.8187 0.1562,-1.6431 0.1562,-2.4688 -0.1428,-0.019 -0.2945,-0.044 -0.4375,-0.062 -7.471,-58.2045 -114.7099,-104.375 -245.9375,-104.375 z"
       id="path3768" />
    <path
       sodipodi:nodetypes="ccccc"
       id="path3770"
       d="m 2179.0709,3270.0304 -443.0938,225.8438 c -4.9579,15.8518 13.9067,14.1521 24.8125,13.0312 l 428.6563,-218.5312 -10.375,-20.3438 z"
       style="fill:#1a1a1a;fill-opacity:1;stroke:none" />
    <path
       sodipodi:nodetypes="ccccc"
       id="path3772"
       d="m 2192.2896,3406.468 -406.2812,118.6874 c -11.0166,7.9259 1.8254,15.2337 17.0625,18.8126 l 395.625,-115.5626 -6.4063,-21.9374 z"
       style="fill:#1a1a1a;fill-opacity:1;stroke:none" />
    <rect
       style="fill:#1a1a1a;fill-opacity:1;stroke:none"
       id="rect3774"
       width="2428.5715"
       height="1737.1428"
       x="-1954.2858"
       y="972.36218" />
    <path
       style="fill:#ffffff;stroke:#ffffff;stroke-width:30;stroke-miterlimit:4;stroke-opacity:1;stroke-dasharray:none"
       d="m -1122.9954,1784.9688 c 10e-5,77.0063 0,-95.3129 0,4.1562 0,99.4691 69.5323,223.2294 170.84369,287.0625 16.6106,45.8975 72.5453,79.6563 139.0312,79.6563 66.4859,0 122.4518,-33.7588 139.0625,-79.6563 101.2992,-63.8372 170.8125,-187.6008 170.8125,-287.0625 -0.045,0.038 -0.08,0.087 -0.125,0.125 0.094,-1.4142 0.125,-2.8567 0.125,-4.2812 0,-1.0448 -0.012,-2.0858 -0.062,-3.125 l 290.5625,-84.875 -6.4062,-21.9376 -289.25,84.5 c -5.6968,-13.9059 -15.9879,-27.089 -30.125,-39.2187 l 316.5312,-161.375 -10.375,-20.3437 -5e-4,0 -326.7187,166.5312 c -56.0274,-36.0086 -148.912,-59.5625 -254.0313,-59.5625 -171.1406,0 -309.87499,62.4 -309.87489,139.4063 z"
       id="path3776"
       sodipodi:nodetypes="cccscccscccccccccss" />
    <path
       style="fill:#1a1a1a;fill-opacity:1;fill-rule:evenodd;stroke:none"
       d="m -813.12051,1645.5625 c -171.1406,0 -309.87489,62.4 -309.87489,139.4063 0,1.4245 0.031,2.867 0.125,4.2812 -0.044,-0.039 -0.081,-0.086 -0.125,-0.125 0,99.4691 69.5323,223.2294 170.84369,287.0625 16.6106,45.8975 72.5453,79.6563 139.0312,79.6563 66.4859,0 122.4518,-33.7588 139.0625,-79.6563 101.2992,-63.8372 170.8125,-187.6008 170.8125,-287.0625 -0.045,0.038 -0.08,0.087 -0.125,0.125 0.094,-1.4142 0.125,-2.8567 0.125,-4.2812 0,-77.0063 -138.7344,-139.4063 -309.875,-139.4063 z"
       id="path3778" />
    <path
       style="fill:#ff6600;fill-rule:evenodd;stroke:none"
       d="m -813.12051,1702.6875 c -131.2507,0 -238.50039,46.1872 -245.93749,104.4063 -0.142,0.015 -0.2957,0.016 -0.4374,0.031 0,0.8262 0.084,1.6496 0.1874,2.4688 -0.1024,1.3136 -0.1874,2.6438 -0.1874,3.9687 0.4021,5e-4 0.6927,-5e-4 1.0937,0 11.638,34.9295 116.99379,62.2813 245.28119,62.2813 128.291,0 233.6795,-27.3504 245.3125,-62.2813 0.3891,0 0.6723,0 1.0625,0 0,-1.3245 -0.054,-2.6554 -0.1562,-3.9687 0.1035,-0.8187 0.1562,-1.6431 0.1562,-2.4688 -0.1428,-0.019 -0.2945,-0.044 -0.4375,-0.062 -7.471,-58.2045 -114.7099,-104.375 -245.9375,-104.375 z"
       id="path3780" />
    <path
       sodipodi:nodetypes="ccccc"
       id="path3782"
       d="m -232.35771,1538.6018 -443.0938,225.8438 c -4.9579,15.8518 13.9067,14.1521 24.8125,13.0312 l 428.6563,-218.5312 -10.375,-20.3438 z"
       style="fill:#1a1a1a;fill-opacity:1;stroke:none" />
    <path
       sodipodi:nodetypes="ccccc"
       id="path3784"
       d="m -219.13901,1675.0394 -406.2812,118.6874 c -11.0166,7.9259 1.8254,15.2337 17.0625,18.8126 l 395.625,-115.5626 -6.4063,-21.9374 z"
       style="fill:#1a1a1a;fill-opacity:1;stroke:none" />
    <path
       sodipodi:nodetypes="cccscccscccccccccss"
       id="path3798"
       d="m -3705.8526,1784.9688 c 1e-4,77.0063 0,-95.3129 0,4.1562 0,99.4691 69.5323,223.2294 170.8437,287.0625 16.6106,45.8975 72.5453,79.6563 139.0312,79.6563 66.4859,0 122.4518,-33.7588 139.0625,-79.6563 101.2992,-63.8372 170.8125,-187.6008 170.8125,-287.0625 -0.045,0.038 -0.08,0.087 -0.125,0.125 0.094,-1.4142 0.125,-2.8567 0.125,-4.2812 0,-1.0448 -0.012,-2.0858 -0.062,-3.125 l 290.5625,-84.875 -6.4062,-21.9376 -289.25,84.5 c -5.6968,-13.9059 -15.9879,-27.089 -30.125,-39.2187 l 316.5312,-161.375 -10.375,-20.3437 -5e-4,0 -326.7187,166.5312 c -56.0274,-36.0086 -148.912,-59.5625 -254.0313,-59.5625 -171.1406,0 -309.875,62.4 -309.8749,139.4063 z"
       style="fill:#ffffff;stroke:#ffffff;stroke-width:30;stroke-miterlimit:4;stroke-opacity:1;stroke-dasharray:none"
       inkscape:export-filename="/Users/chrism/Desktop/gamedev/jsgamesoup/docs/jsGameSoup-logo.png"
       inkscape:export-xdpi="20"
       inkscape:export-ydpi="20" />
    <path
       id="path3800"
       d="m -3395.9777,1645.5625 c -171.1406,0 -309.8749,62.4 -309.8749,139.4063 0,1.4245 0.031,2.867 0.125,4.2812 -0.044,-0.039 -0.081,-0.086 -0.125,-0.125 0,99.4691 69.5323,223.2294 170.8437,287.0625 16.6106,45.8975 72.5453,79.6563 139.0312,79.6563 66.4859,0 122.4518,-33.7588 139.0625,-79.6563 101.2992,-63.8372 170.8125,-187.6008 170.8125,-287.0625 -0.045,0.038 -0.08,0.087 -0.125,0.125 0.094,-1.4142 0.125,-2.8567 0.125,-4.2812 0,-77.0063 -138.7344,-139.4063 -309.875,-139.4063 z"
       style="fill:#1a1a1a;fill-opacity:1;fill-rule:evenodd;stroke:none"
       inkscape:export-filename="/Users/chrism/Desktop/gamedev/jsgamesoup/docs/jsGameSoup-logo.png"
       inkscape:export-xdpi="20"
       inkscape:export-ydpi="20" />
    <path
       id="path3802"
       d="m -3395.9777,1702.6875 c -131.2507,0 -238.5004,46.1872 -245.9375,104.4063 -0.142,0.015 -0.2957,0.016 -0.4374,0.031 0,0.8262 0.084,1.6496 0.1874,2.4688 -0.1024,1.3136 -0.1874,2.6438 -0.1874,3.9687 0.4021,5e-4 0.6927,-5e-4 1.0937,0 11.638,34.9295 116.9938,62.2813 245.2812,62.2813 128.291,0 233.6795,-27.3504 245.3125,-62.2813 0.3891,0 0.6723,0 1.0625,0 0,-1.3245 -0.054,-2.6554 -0.1562,-3.9687 0.1035,-0.8187 0.1562,-1.6431 0.1562,-2.4688 -0.1428,-0.019 -0.2945,-0.044 -0.4375,-0.062 -7.471,-58.2045 -114.7099,-104.375 -245.9375,-104.375 z"
       style="fill:#ff6600;fill-rule:evenodd;stroke:none"
       inkscape:export-filename="/Users/chrism/Desktop/gamedev/jsgamesoup/docs/jsGameSoup-logo.png"
       inkscape:export-xdpi="20"
       inkscape:export-ydpi="20" />
    <path
       style="fill:#1a1a1a;fill-opacity:1;stroke:none"
       d="m -2815.2149,1538.6018 -443.0938,225.8438 c -4.9579,15.8518 13.9067,14.1521 24.8125,13.0312 l 428.6563,-218.5312 -10.375,-20.3438 z"
       id="path3804"
       sodipodi:nodetypes="ccccc"
       inkscape:export-filename="/Users/chrism/Desktop/gamedev/jsgamesoup/docs/jsGameSoup-logo.png"
       inkscape:export-xdpi="20"
       inkscape:export-ydpi="20" />
    <path
       style="fill:#1a1a1a;fill-opacity:1;stroke:none"
       d="m -2801.9962,1675.0394 -406.2812,118.6874 c -11.0166,7.9259 1.8254,15.2337 17.0625,18.8126 l 395.625,-115.5626 -6.4063,-21.9374 z"
       id="path3806"
       sodipodi:nodetypes="ccccc"
       inkscape:export-filename="/Users/chrism/Desktop/gamedev/jsgamesoup/docs/jsGameSoup-logo.png"
       inkscape:export-xdpi="20"
       inkscape:export-ydpi="20" />
  </g>
</svg>
